<?xml version="1.0" encoding="UTF-8" standalone="no"?>
<!DOCTYPE svg PUBLIC "-//W3C//DTD SVG 1.1//EN"
 "http://www.w3.org/Graphics/SVG/1.1/DTD/svg11.dtd">
<!-- Generated by graphviz version 2.43.0 (0)
 -->
<!-- Title: G Pages: 1 -->
<svg width="946pt" height="858pt"
 viewBox="0.00 0.00 945.69 857.98" xmlns="http://www.w3.org/2000/svg" xmlns:xlink="http://www.w3.org/1999/xlink">
<g id="graph0" class="graph" transform="scale(1 1) rotate(0) translate(4 853.98)">
<title>G</title><style>.edge>path:hover{stroke-width:8}</style>
<polygon fill="white" stroke="transparent" points="-4,4 -4,-853.98 941.69,-853.98 941.69,4 -4,4"/>
<!-- flask -->
<g id="node1" class="node">
<title>flask</title><style>.edge>path:hover{stroke-width:8}</style>
<polygon fill="blue" stroke="black" points="356.65,-36 302.65,-36 302.65,0 356.65,0 356.65,-36"/>
<text text-anchor="middle" x="329.65" y="-15.5" font-family="Helvetica,sans-Serif" font-size="10.00" fill="white">flask</text>
</g>
<!-- flask___main__ -->
<g id="node2" class="node">
<title>flask___main__</title><style>.edge>path:hover{stroke-width:8}</style>
<ellipse fill="#b34c4c" stroke="black" cx="435.65" cy="-615.98" rx="52.28" ry="18"/>
<text text-anchor="middle" x="435.65" y="-613.48" font-family="Helvetica,sans-Serif" font-size="10.00" fill="#ffffff">flask.__main__</text>
</g>
<!-- flask_app -->
<g id="node3" class="node">
<title>flask_app</title><style>.edge>path:hover{stroke-width:8}</style>
<polygon fill="blue" stroke="black" points="641.15,-777.98 580.15,-777.98 580.15,-741.98 641.15,-741.98 641.15,-777.98"/>
<text text-anchor="middle" x="610.65" y="-757.48" font-family="Helvetica,sans-Serif" font-size="10.00" fill="white">flask.app</text>
</g>
<!-- flask_app&#45;&gt;flask -->
<g id="edge1" class="edge">
<title>flask_app&#45;&gt;flask</title><style>.edge>path:hover{stroke-width:8}</style>
<path fill="none" stroke="black" d="M580.15,-759.2C488.39,-759.31 216.88,-755.35 146.65,-705.98 110.55,-680.61 102.65,-661.11 102.65,-616.98 102.65,-616.98 102.65,-616.98 102.65,-243.99 102.65,-198.29 105.41,-181.05 78.65,-144 54.33,-110.32 -8.72,-131.23 1.65,-91"/>
</g>
<!-- flask_cli -->
<g id="node5" class="node">
<title>flask_cli</title><style>.edge>path:hover{stroke-width:8}</style>
<polygon fill="blue" stroke="black" points="260.65,-705.98 206.65,-705.98 206.65,-669.98 260.65,-669.98 260.65,-705.98"/>
<text text-anchor="middle" x="233.65" y="-685.48" font-family="Helvetica,sans-Serif" font-size="10.00" fill="white">flask.cli</text>
</g>
<!-- flask_app&#45;&gt;flask_cli -->
<g id="edge2" class="edge">
<title>flask_app&#45;&gt;flask_cli</title><style>.edge>path:hover{stroke-width:8}</style>
<path fill="none" stroke="black" d="M570.28,-751.49C496.69,-737.82 341.8,-709.06 270.72,-695.87"/>
<polygon fill="blue" stroke="black" points="569.65,-754.93 580.12,-753.31 570.93,-748.05 569.65,-754.93"/>
<polygon fill="blue" stroke="black" points="271.34,-692.42 260.87,-694.04 270.06,-699.3 271.34,-692.42"/>
</g>
<!-- flask_ctx -->
<g id="node7" class="node">
<title>flask_ctx</title><style>.edge>path:hover{stroke-width:8}</style>
<polygon fill="blue" stroke="black" points="854.65,-345.98 796.65,-345.98 796.65,-309.98 854.65,-309.98 854.65,-345.98"/>
<text text-anchor="middle" x="825.65" y="-325.48" font-family="Helvetica,sans-Serif" font-size="10.00" fill="white">flask.ctx</text>
</g>
<!-- flask_app&#45;&gt;flask_ctx -->
<g id="edge3" class="edge">
<title>flask_app&#45;&gt;flask_ctx</title><style>.edge>path:hover{stroke-width:8}</style>
<path fill="none" stroke="black" d="M651.63,-759.38C697.97,-757.64 773.02,-747.88 819.65,-705.98 851.03,-677.79 852.65,-659.17 852.65,-616.98 852.65,-616.98 852.65,-616.98 852.65,-470.98 852.65,-430.48 841.92,-384.61 833.99,-356.24"/>
<polygon fill="blue" stroke="black" points="651.25,-755.89 641.35,-759.66 651.44,-762.89 651.25,-755.89"/>
<polygon fill="blue" stroke="black" points="837.25,-354.91 831.11,-346.27 830.52,-356.85 837.25,-354.91"/>
</g>
<!-- flask_globals -->
<g id="node9" class="node">
<title>flask_globals</title><style>.edge>path:hover{stroke-width:8}</style>
<polygon fill="blue" stroke="black" points="558.65,-262.99 480.65,-262.99 480.65,-226.99 558.65,-226.99 558.65,-262.99"/>
<text text-anchor="middle" x="519.65" y="-242.49" font-family="Helvetica,sans-Serif" font-size="10.00" fill="white">flask.globals</text>
</g>
<!-- flask_app&#45;&gt;flask_globals -->
<g id="edge4" class="edge">
<title>flask_app&#45;&gt;flask_globals</title><style>.edge>path:hover{stroke-width:8}</style>
<path fill="none" stroke="black" d="M651.38,-748.98C708.54,-732.23 805.65,-692.64 805.65,-616.98 805.65,-616.98 805.65,-616.98 805.65,-542.98 805.65,-428.84 791.17,-375.42 697.65,-309.98 686.67,-302.3 617.31,-278.39 568.49,-262.08"/>
<polygon fill="blue" stroke="black" points="650.22,-745.67 641.55,-751.76 652.12,-752.41 650.22,-745.67"/>
<polygon fill="blue" stroke="black" points="569.31,-258.66 558.72,-258.82 567.1,-265.3 569.31,-258.66"/>
</g>
<!-- flask_sessions -->
<g id="node15" class="node">
<title>flask_sessions</title><style>.edge>path:hover{stroke-width:8}</style>
<polygon fill="blue" stroke="black" points="748.15,-417.98 663.15,-417.98 663.15,-381.98 748.15,-381.98 748.15,-417.98"/>
<text text-anchor="middle" x="705.65" y="-397.48" font-family="Helvetica,sans-Serif" font-size="10.00" fill="white">flask.sessions</text>
</g>
<!-- flask_app&#45;&gt;flask_sessions -->
<g id="edge5" class="edge">
<title>flask_app&#45;&gt;flask_sessions</title><style>.edge>path:hover{stroke-width:8}</style>
<path fill="none" stroke="black" d="M650.53,-743.45C697.05,-722.41 767.65,-680.08 767.65,-616.98 767.65,-616.98 767.65,-616.98 767.65,-542.98 767.65,-499.48 742.91,-454.27 724.68,-426.88"/>
<polygon fill="blue" stroke="black" points="649.05,-740.28 641.29,-747.49 651.86,-746.69 649.05,-740.28"/>
<polygon fill="blue" stroke="black" points="727.34,-424.56 718.8,-418.29 721.57,-428.52 727.34,-424.56"/>
</g>
<!-- flask_templating -->
<g id="node17" class="node">
<title>flask_templating</title><style>.edge>path:hover{stroke-width:8}</style>
<polygon fill="blue" stroke="black" points="99.65,-108 29.65,-108 29.65,-72 99.65,-72 99.65,-108"/>
<text text-anchor="middle" x="64.65" y="-93" font-family="Helvetica,sans-Serif" font-size="10.00" fill="white">flask.</text>
<text text-anchor="middle" x="64.65" y="-82" font-family="Helvetica,sans-Serif" font-size="10.00" fill="white">templating</text>
</g>
<!-- flask_app&#45;&gt;flask_templating -->
<g id="edge6" class="edge">
<title>flask_app&#45;&gt;flask_templating</title><style>.edge>path:hover{stroke-width:8}</style>
<path fill="none" stroke="black" d="M569.71,-758.67C475.55,-757.2 246.98,-749.15 185.65,-705.98 149.41,-680.47 140.65,-661.31 140.65,-616.98 140.65,-616.98 140.65,-616.98 140.65,-243.99 140.65,-198.29 138.79,-183.98 116.65,-144 110.76,-133.36 102.14,-123.36 93.62,-114.98"/>
<polygon fill="blue" stroke="black" points="569.93,-762.17 579.98,-758.81 570.03,-755.17 569.93,-762.17"/>
<polygon fill="blue" stroke="black" points="95.91,-112.33 86.21,-108.05 91.13,-117.44 95.91,-112.33"/>
</g>
<!-- flask_testing -->
<g id="node18" class="node">
<title>flask_testing</title><style>.edge>path:hover{stroke-width:8}</style>
<polygon fill="blue" stroke="black" points="664.15,-345.98 587.15,-345.98 587.15,-309.98 664.15,-309.98 664.15,-345.98"/>
<text text-anchor="middle" x="625.65" y="-325.48" font-family="Helvetica,sans-Serif" font-size="10.00" fill="white">flask.testing</text>
</g>
<!-- flask_app&#45;&gt;flask_testing -->
<g id="edge7" class="edge">
<title>flask_app&#45;&gt;flask_testing</title><style>.edge>path:hover{stroke-width:8}</style>
<path fill="none" stroke="black" d="M611.61,-731.45C614.32,-653.88 621.98,-434.14 624.69,-356.54"/>
<polygon fill="blue" stroke="black" points="608.1,-731.74 611.25,-741.86 615.09,-731.99 608.1,-731.74"/>
<polygon fill="blue" stroke="black" points="628.2,-356.27 625.05,-346.15 621.2,-356.03 628.2,-356.27"/>
</g>
<!-- flask_blueprints -->
<g id="node4" class="node">
<title>flask_blueprints</title><style>.edge>path:hover{stroke-width:8}</style>
<polygon fill="blue" stroke="black" points="327.15,-633.98 262.15,-633.98 262.15,-597.98 327.15,-597.98 327.15,-633.98"/>
<text text-anchor="middle" x="294.65" y="-618.98" font-family="Helvetica,sans-Serif" font-size="10.00" fill="white">flask.</text>
<text text-anchor="middle" x="294.65" y="-607.98" font-family="Helvetica,sans-Serif" font-size="10.00" fill="white">blueprints</text>
</g>
<!-- flask_blueprints&#45;&gt;flask -->
<g id="edge8" class="edge">
<title>flask_blueprints&#45;&gt;flask</title><style>.edge>path:hover{stroke-width:8}</style>
<path fill="none" stroke="black" d="M292.72,-597.62C286.25,-529.69 272.65,-279.94 406.65,-163"/>
<path fill="none" stroke="black" d="M406.65,-161C470.1,-98.36 620.16,-176.43 594.65,-91"/>
</g>
<!-- flask_debughelpers -->
<g id="node8" class="node">
<title>flask_debughelpers</title><style>.edge>path:hover{stroke-width:8}</style>
<polygon fill="blue" stroke="black" points="448.15,-561.98 365.15,-561.98 365.15,-525.98 448.15,-525.98 448.15,-561.98"/>
<text text-anchor="middle" x="406.65" y="-546.98" font-family="Helvetica,sans-Serif" font-size="10.00" fill="white">flask.</text>
<text text-anchor="middle" x="406.65" y="-535.98" font-family="Helvetica,sans-Serif" font-size="10.00" fill="white">debughelpers</text>
</g>
<!-- flask_blueprints&#45;&gt;flask_debughelpers -->
<g id="edge9" class="edge">
<title>flask_blueprints&#45;&gt;flask_debughelpers</title><style>.edge>path:hover{stroke-width:8}</style>
<path fill="none" stroke="black" d="M322.05,-597.86C336.56,-588.79 354.57,-577.54 370.24,-567.74"/>
<polygon fill="blue" stroke="black" points="372.52,-570.44 379.15,-562.17 368.81,-564.5 372.52,-570.44"/>
</g>
<!-- flask_cli&#45;&gt;flask___main__ -->
<g id="edge10" class="edge">
<title>flask_cli&#45;&gt;flask___main__</title><style>.edge>path:hover{stroke-width:8}</style>
<path fill="none" stroke="black" d="M260.89,-677.54C294.12,-666.03 350.77,-646.4 390.54,-632.61"/>
<polygon fill="blue" stroke="black" points="391.71,-635.91 400.01,-629.33 389.42,-629.3 391.71,-635.91"/>
</g>
<!-- flask_cli&#45;&gt;flask_blueprints -->
<g id="edge12" class="edge">
<title>flask_cli&#45;&gt;flask_blueprints</title><style>.edge>path:hover{stroke-width:8}</style>
<path fill="none" stroke="black" d="M248.73,-669.68C256.04,-661.29 264.96,-651.05 272.99,-641.84"/>
<polygon fill="blue" stroke="black" points="275.81,-643.93 279.74,-634.09 270.54,-639.33 275.81,-643.93"/>
</g>
<!-- flask_cli&#45;&gt;flask_testing -->
<g id="edge13" class="edge">
<title>flask_cli&#45;&gt;flask_testing</title><style>.edge>path:hover{stroke-width:8}</style>
<path fill="none" stroke="black" d="M260.76,-675.31C281.98,-665.61 311.81,-650.73 335.65,-633.98 354.95,-620.42 354.37,-610.04 374.65,-597.98 417.42,-572.56 440.5,-591.37 480.65,-561.98 554.23,-508.13 598.84,-404.57 616.66,-355.73"/>
<polygon fill="blue" stroke="black" points="620.01,-356.77 620.06,-346.17 613.41,-354.42 620.01,-356.77"/>
</g>
<!-- flask_config -->
<g id="node6" class="node">
<title>flask_config</title><style>.edge>path:hover{stroke-width:8}</style>
<ellipse fill="#c24747" stroke="black" cx="664.65" cy="-90" rx="42.27" ry="18"/>
<text text-anchor="middle" x="664.65" y="-87.5" font-family="Helvetica,sans-Serif" font-size="10.00" fill="#ffffff">flask.config</text>
</g>
<!-- flask_config&#45;&gt;flask -->
<g id="edge14" class="edge">
<title>flask_config&#45;&gt;flask</title><style>.edge>path:hover{stroke-width:8}</style>
<path fill="none" stroke="black" d="M631.94,-78.43C624.34,-76.15 616.25,-73.87 608.65,-72 522.92,-50.91 420.62,-33.39 366.87,-24.77"/>
<polygon fill="#c24747" stroke="black" points="367.22,-21.28 356.79,-23.16 366.12,-28.19 367.22,-21.28"/>
</g>
<!-- flask_ctx&#45;&gt;flask -->
<g id="edge15" class="edge">
<title>flask_ctx&#45;&gt;flask</title><style>.edge>path:hover{stroke-width:8}</style>
<path fill="none" stroke="black" d="M817.47,-309.76C799.84,-274.28 755.03,-192.35 695.65,-144 656.34,-111.99 609.23,-139.55 594.65,-91"/>
</g>
<!-- flask_ctx&#45;&gt;flask_globals -->
<g id="edge17" class="edge">
<title>flask_ctx&#45;&gt;flask_globals</title><style>.edge>path:hover{stroke-width:8}</style>
<path fill="none" stroke="black" d="M786.61,-318.55C742.44,-308.78 668.47,-291.74 605.65,-273.98 593.49,-270.54 580.47,-266.5 568.35,-262.57"/>
<polygon fill="blue" stroke="black" points="786.12,-322.02 796.63,-320.75 787.62,-315.19 786.12,-322.02"/>
<polygon fill="blue" stroke="black" points="569.43,-259.25 558.84,-259.46 567.26,-265.9 569.43,-259.25"/>
</g>
<!-- flask_debughelpers&#45;&gt;flask_app -->
<g id="edge18" class="edge">
<title>flask_debughelpers&#45;&gt;flask_app</title><style>.edge>path:hover{stroke-width:8}</style>
<path fill="none" stroke="black" d="M448.44,-561.32C492.62,-581.2 559.7,-619.46 587.53,-677.5"/>
<polygon fill="blue" stroke="black" points="584.46,-679.21 591.65,-686.98 590.88,-676.42 584.46,-679.21"/>
<path fill="none" stroke="black" d="M591.65,-688.98C598.51,-706.58 603.86,-727.59 607.1,-741.97"/>
</g>
<!-- flask_debughelpers&#45;&gt;flask_templating -->
<g id="edge19" class="edge">
<title>flask_debughelpers&#45;&gt;flask_templating</title><style>.edge>path:hover{stroke-width:8}</style>
<path fill="none" stroke="black" d="M395.98,-525.59C350.1,-450.85 171.05,-159.9 154.65,-144 141.37,-131.13 124.39,-120.1 108.76,-111.49"/>
<polygon fill="blue" stroke="black" points="110.23,-108.31 99.76,-106.71 106.94,-114.49 110.23,-108.31"/>
</g>
<!-- flask_wrappers -->
<g id="node21" class="node">
<title>flask_wrappers</title><style>.edge>path:hover{stroke-width:8}</style>
<polygon fill="blue" stroke="black" points="524.65,-489.98 436.65,-489.98 436.65,-453.98 524.65,-453.98 524.65,-489.98"/>
<text text-anchor="middle" x="480.65" y="-469.48" font-family="Helvetica,sans-Serif" font-size="10.00" fill="white">flask.wrappers</text>
</g>
<!-- flask_debughelpers&#45;&gt;flask_wrappers -->
<g id="edge20" class="edge">
<title>flask_debughelpers&#45;&gt;flask_wrappers</title><style>.edge>path:hover{stroke-width:8}</style>
<path fill="none" stroke="black" d="M432.28,-518.74C439.61,-511.81 447.6,-504.25 454.93,-497.31"/>
<polygon fill="blue" stroke="black" points="429.8,-516.26 424.94,-525.68 434.61,-521.35 429.8,-516.26"/>
<polygon fill="blue" stroke="black" points="457.71,-499.5 462.57,-490.09 452.9,-494.42 457.71,-499.5"/>
</g>
<!-- flask_globals&#45;&gt;flask -->
<g id="edge21" class="edge">
<title>flask_globals&#45;&gt;flask</title><style>.edge>path:hover{stroke-width:8}</style>
<path fill="none" stroke="black" d="M539.1,-226.82C551.41,-214.89 566.65,-197.95 575.65,-180 593.77,-143.84 606.62,-129.63 594.65,-91"/>
</g>
<!-- flask_globals&#45;&gt;flask_blueprints -->
<g id="edge23" class="edge">
<title>flask_globals&#45;&gt;flask_blueprints</title><style>.edge>path:hover{stroke-width:8}</style>
<path fill="none" stroke="black" d="M486.67,-263.05C464.29,-275.91 434.95,-295.37 413.37,-319.12"/>
<polygon fill="blue" stroke="black" points="410.49,-317.11 406.65,-326.98 415.81,-321.65 410.49,-317.11"/>
<path fill="none" stroke="black" d="M406.65,-328.98C387.52,-348.44 387.07,-357.2 375.65,-381.98 370.89,-392.31 318.22,-546.04 300.46,-597.98"/>
</g>
<!-- flask_globals&#45;&gt;flask_cli -->
<g id="edge24" class="edge">
<title>flask_globals&#45;&gt;flask_cli</title><style>.edge>path:hover{stroke-width:8}</style>
<path fill="none" stroke="black" d="M525.61,-263.25C545.54,-324.5 602.88,-533.2 496.65,-633.98 464.64,-664.35 335.97,-678.8 271.24,-684.26"/>
<polygon fill="blue" stroke="black" points="270.73,-680.79 261.05,-685.09 271.3,-687.76 270.73,-680.79"/>
</g>
<!-- flask_globals&#45;&gt;flask_debughelpers -->
<g id="edge26" class="edge">
<title>flask_globals&#45;&gt;flask_debughelpers</title><style>.edge>path:hover{stroke-width:8}</style>
<path fill="none" stroke="black" d="M406.65,-328.98C357.77,-385.68 385.84,-485.71 400,-525.72"/>
</g>
<!-- flask_helpers -->
<g id="node10" class="node">
<title>flask_helpers</title><style>.edge>path:hover{stroke-width:8}</style>
<polygon fill="blue" stroke="black" points="336.15,-180 257.15,-180 257.15,-144 336.15,-144 336.15,-180"/>
<text text-anchor="middle" x="296.65" y="-159.5" font-family="Helvetica,sans-Serif" font-size="10.00" fill="white">flask.helpers</text>
</g>
<!-- flask_globals&#45;&gt;flask_helpers -->
<g id="edge27" class="edge">
<title>flask_globals&#45;&gt;flask_helpers</title><style>.edge>path:hover{stroke-width:8}</style>
<path fill="none" stroke="black" d="M480.55,-229.79C443.08,-216.18 386.4,-195.6 345.87,-180.88"/>
<polygon fill="blue" stroke="black" points="347.05,-177.58 336.46,-177.46 344.66,-184.16 347.05,-177.58"/>
</g>
<!-- flask_json -->
<g id="node11" class="node">
<title>flask_json</title><style>.edge>path:hover{stroke-width:8}</style>
<polygon fill="blue" stroke="black" points="686.15,-180 623.15,-180 623.15,-144 686.15,-144 686.15,-180"/>
<text text-anchor="middle" x="654.65" y="-159.5" font-family="Helvetica,sans-Serif" font-size="10.00" fill="white">flask.json</text>
</g>
<!-- flask_globals&#45;&gt;flask_json -->
<g id="edge28" class="edge">
<title>flask_globals&#45;&gt;flask_json</title><style>.edge>path:hover{stroke-width:8}</style>
<path fill="none" stroke="black" d="M548.28,-226.82C568.42,-214.74 595.55,-198.46 617.38,-185.36"/>
<polygon fill="blue" stroke="black" points="619.29,-188.3 626.06,-180.15 615.69,-182.29 619.29,-188.3"/>
</g>
<!-- flask_logging -->
<g id="node14" class="node">
<title>flask_logging</title><style>.edge>path:hover{stroke-width:8}</style>
<ellipse fill="#b34c4c" stroke="black" cx="519.65" cy="-162" rx="46.51" ry="18"/>
<text text-anchor="middle" x="519.65" y="-159.5" font-family="Helvetica,sans-Serif" font-size="10.00" fill="#ffffff">flask.logging</text>
</g>
<!-- flask_globals&#45;&gt;flask_logging -->
<g id="edge29" class="edge">
<title>flask_globals&#45;&gt;flask_logging</title><style>.edge>path:hover{stroke-width:8}</style>
<path fill="none" stroke="black" d="M519.65,-226.82C519.65,-216.18 519.65,-202.3 519.65,-190.2"/>
<polygon fill="blue" stroke="black" points="523.15,-190.15 519.65,-180.15 516.15,-190.15 523.15,-190.15"/>
</g>
<!-- flask_globals&#45;&gt;flask_templating -->
<g id="edge30" class="edge">
<title>flask_globals&#45;&gt;flask_templating</title><style>.edge>path:hover{stroke-width:8}</style>
<path fill="none" stroke="black" d="M495.71,-226.85C463.13,-204.35 402.27,-165.24 344.65,-144 264.89,-114.61 166.08,-100.8 109.71,-94.89"/>
<polygon fill="blue" stroke="black" points="109.99,-91.4 99.69,-93.88 109.29,-98.36 109.99,-91.4"/>
</g>
<!-- flask_views -->
<g id="node20" class="node">
<title>flask_views</title><style>.edge>path:hover{stroke-width:8}</style>
<ellipse fill="#a44646" stroke="black" cx="856.65" cy="-162" rx="41.59" ry="18"/>
<text text-anchor="middle" x="856.65" y="-159.5" font-family="Helvetica,sans-Serif" font-size="10.00" fill="#ffffff">flask.views</text>
</g>
<!-- flask_globals&#45;&gt;flask_views -->
<g id="edge31" class="edge">
<title>flask_globals&#45;&gt;flask_views</title><style>.edge>path:hover{stroke-width:8}</style>
<path fill="none" stroke="black" d="M558.78,-230.28C573.38,-225.42 590.18,-220.14 605.65,-216 675.49,-197.32 757.67,-181.02 808.47,-171.59"/>
<polygon fill="blue" stroke="black" points="809.31,-175 818.51,-169.74 808.04,-168.11 809.31,-175"/>
</g>
<!-- flask_helpers&#45;&gt;flask -->
<g id="edge33" class="edge">
<title>flask_helpers&#45;&gt;flask</title><style>.edge>path:hover{stroke-width:8}</style>
<path fill="none" stroke="black" d="M336.21,-153.78C418.15,-138.57 598.54,-103.56 594.65,-91"/>
<path fill="none" stroke="black" d="M594.65,-89C581.02,-45.01 436.5,-27.52 366.82,-21.61"/>
<polygon fill="blue" stroke="black" points="366.96,-18.11 356.71,-20.79 366.39,-25.09 366.96,-18.11"/>
</g>
<!-- flask_helpers&#45;&gt;flask_app -->
<g id="edge34" class="edge">
<title>flask_helpers&#45;&gt;flask_app</title><style>.edge>path:hover{stroke-width:8}</style>
<path fill="none" stroke="black" d="M290.79,-180.04C273.49,-232.87 225.8,-398.48 258.08,-532.95"/>
<polygon fill="blue" stroke="black" points="254.77,-534.17 260.65,-542.98 261.55,-532.43 254.77,-534.17"/>
<path fill="none" stroke="black" d="M260.65,-544.98C269.45,-577.15 243.98,-583.28 233.65,-614.98"/>
<path fill="none" stroke="black" d="M233.65,-616.98C218.55,-656.89 169.46,-673.95 197.65,-705.98 222.9,-734.68 488.33,-752.13 579.84,-757.34"/>
</g>
<!-- flask_helpers&#45;&gt;flask_blueprints -->
<g id="edge35" class="edge">
<title>flask_helpers&#45;&gt;flask_blueprints</title><style>.edge>path:hover{stroke-width:8}</style>
<path fill="none" stroke="black" d="M260.65,-544.98C265.86,-564.01 276.18,-584.1 284.1,-597.86"/>
</g>
<!-- flask_helpers&#45;&gt;flask_cli -->
<g id="edge36" class="edge">
<title>flask_helpers&#45;&gt;flask_cli</title><style>.edge>path:hover{stroke-width:8}</style>
<path fill="none" stroke="black" d="M233.65,-616.98C227.15,-634.15 228.32,-655.42 230.37,-669.98"/>
</g>
<!-- flask_helpers&#45;&gt;flask_templating -->
<g id="edge37" class="edge">
<title>flask_helpers&#45;&gt;flask_templating</title><style>.edge>path:hover{stroke-width:8}</style>
<path fill="none" stroke="black" d="M257.03,-149.05C216.09,-136.69 152.29,-117.44 109.52,-104.54"/>
<polygon fill="blue" stroke="black" points="110.51,-101.18 99.93,-101.64 108.49,-107.88 110.51,-101.18"/>
</g>
<!-- flask_json&#45;&gt;flask -->
<g id="edge39" class="edge">
<title>flask_json&#45;&gt;flask</title><style>.edge>path:hover{stroke-width:8}</style>
<path fill="none" stroke="black" d="M632.63,-143.82C618.36,-131.06 601.24,-112.25 594.65,-91"/>
</g>
<!-- flask_json&#45;&gt;flask_sessions -->
<g id="edge40" class="edge">
<title>flask_json&#45;&gt;flask_sessions</title><style>.edge>path:hover{stroke-width:8}</style>
<path fill="none" stroke="black" d="M676.74,-180.15C686.98,-189.51 698.09,-202.03 703.65,-216 724.33,-267.99 717.5,-335.05 711.23,-371.84"/>
<polygon fill="blue" stroke="black" points="707.76,-371.34 709.41,-381.8 714.65,-372.59 707.76,-371.34"/>
</g>
<!-- flask_json_provider -->
<g id="node12" class="node">
<title>flask_json_provider</title><style>.edge>path:hover{stroke-width:8}</style>
<ellipse fill="#c24747" stroke="black" cx="654.65" cy="-244.99" rx="40.11" ry="28.98"/>
<text text-anchor="middle" x="654.65" y="-253.49" font-family="Helvetica,sans-Serif" font-size="10.00" fill="#ffffff">flask.</text>
<text text-anchor="middle" x="654.65" y="-242.49" font-family="Helvetica,sans-Serif" font-size="10.00" fill="#ffffff">json.</text>
<text text-anchor="middle" x="654.65" y="-231.49" font-family="Helvetica,sans-Serif" font-size="10.00" fill="#ffffff">provider</text>
</g>
<!-- flask_json_provider&#45;&gt;flask_json -->
<g id="edge42" class="edge">
<title>flask_json_provider&#45;&gt;flask_json</title><style>.edge>path:hover{stroke-width:8}</style>
<path fill="none" stroke="black" d="M654.65,-215.66C654.65,-207.42 654.65,-198.43 654.65,-190.25"/>
<polygon fill="#c24747" stroke="black" points="658.15,-190.1 654.65,-180.1 651.15,-190.1 658.15,-190.1"/>
</g>
<!-- flask_json_tag -->
<g id="node13" class="node">
<title>flask_json_tag</title><style>.edge>path:hover{stroke-width:8}</style>
<polygon fill="blue" stroke="black" points="739.65,-561.98 657.65,-561.98 657.65,-525.98 739.65,-525.98 739.65,-561.98"/>
<text text-anchor="middle" x="698.65" y="-541.48" font-family="Helvetica,sans-Serif" font-size="10.00" fill="white">flask.json.tag</text>
</g>
<!-- flask_json_tag&#45;&gt;flask_sessions -->
<g id="edge43" class="edge">
<title>flask_json_tag&#45;&gt;flask_sessions</title><style>.edge>path:hover{stroke-width:8}</style>
<path fill="none" stroke="black" d="M699.49,-525.85C700.69,-501.65 702.88,-457.19 704.3,-428.38"/>
<polygon fill="blue" stroke="black" points="707.81,-428.33 704.8,-418.17 700.81,-427.99 707.81,-428.33"/>
</g>
<!-- flask_sessions&#45;&gt;flask_ctx -->
<g id="edge45" class="edge">
<title>flask_sessions&#45;&gt;flask_ctx</title><style>.edge>path:hover{stroke-width:8}</style>
<path fill="none" stroke="black" d="M735.01,-381.86C750.96,-372.55 770.86,-360.94 787.95,-350.97"/>
<polygon fill="blue" stroke="black" points="789.72,-353.99 796.6,-345.93 786.2,-347.95 789.72,-353.99"/>
</g>
<!-- flask_sessions&#45;&gt;flask_globals -->
<g id="edge46" class="edge">
<title>flask_sessions&#45;&gt;flask_globals</title><style>.edge>path:hover{stroke-width:8}</style>
<path fill="none" stroke="black" d="M703.65,-381.74C700.51,-362.04 692.68,-329.96 673.65,-309.98 658.56,-294.13 607.58,-274.69 568.37,-261.42"/>
<polygon fill="blue" stroke="black" points="569.27,-258.03 558.68,-258.18 567.06,-264.67 569.27,-258.03"/>
</g>
<!-- flask_sessions&#45;&gt;flask_testing -->
<g id="edge47" class="edge">
<title>flask_sessions&#45;&gt;flask_testing</title><style>.edge>path:hover{stroke-width:8}</style>
<path fill="none" stroke="black" d="M685.87,-381.68C675.9,-372.95 663.64,-362.22 652.79,-352.73"/>
<polygon fill="blue" stroke="black" points="655.03,-350.04 645.2,-346.09 650.42,-355.31 655.03,-350.04"/>
</g>
<!-- flask_signals -->
<g id="node16" class="node">
<title>flask_signals</title><style>.edge>path:hover{stroke-width:8}</style>
<ellipse fill="#f31616" stroke="black" cx="610.65" cy="-831.98" rx="45.15" ry="18"/>
<text text-anchor="middle" x="610.65" y="-829.48" font-family="Helvetica,sans-Serif" font-size="10.00" fill="#ffffff">flask.signals</text>
</g>
<!-- flask_signals&#45;&gt;flask -->
<g id="edge48" class="edge">
<title>flask_signals&#45;&gt;flask</title><style>.edge>path:hover{stroke-width:8}</style>
<path fill="none" stroke="black" d="M565.27,-831.81C470.02,-831.19 246.64,-817.08 108.65,-705.98 74.28,-678.31 55,-660.04 64.65,-616.98"/>
<path fill="none" stroke="black" d="M64.65,-614.98C67.64,-551.94 64.65,-536.09 64.65,-472.98 64.65,-472.98 64.65,-472.98 64.65,-326.98 64.65,-254.1 79.57,-234.34 64.65,-163"/>
<path fill="none" stroke="black" d="M64.65,-161C54.85,-120.31 -9.69,-131.29 1.65,-91"/>
<path fill="none" stroke="black" d="M1.65,-89C17.47,-32.82 209.64,-21.7 292.27,-19.52"/>
<polygon fill="#f31616" stroke="black" points="292.57,-23.02 302.48,-19.28 292.4,-16.02 292.57,-23.02"/>
</g>
<!-- flask_signals&#45;&gt;flask_app -->
<g id="edge49" class="edge">
<title>flask_signals&#45;&gt;flask_app</title><style>.edge>path:hover{stroke-width:8}</style>
<path fill="none" stroke="black" d="M610.65,-813.68C610.65,-805.97 610.65,-796.7 610.65,-788.1"/>
<polygon fill="#f31616" stroke="black" points="614.15,-788.09 610.65,-778.09 607.15,-788.09 614.15,-788.09"/>
</g>
<!-- flask_signals&#45;&gt;flask_ctx -->
<g id="edge50" class="edge">
<title>flask_signals&#45;&gt;flask_ctx</title><style>.edge>path:hover{stroke-width:8}</style>
<path fill="none" stroke="black" d="M655.33,-828.33C734.38,-820.97 890.65,-793.22 890.65,-688.98 890.65,-688.98 890.65,-688.98 890.65,-470.98 890.65,-426.95 864.49,-381.63 845.36,-354.38"/>
<polygon fill="#f31616" stroke="black" points="848.13,-352.25 839.44,-346.19 842.46,-356.35 848.13,-352.25"/>
</g>
<!-- flask_signals&#45;&gt;flask_helpers -->
<g id="edge51" class="edge">
<title>flask_signals&#45;&gt;flask_helpers</title><style>.edge>path:hover{stroke-width:8}</style>
<path fill="none" stroke="black" d="M64.65,-614.98C91.24,-538.54 178.65,-553.92 178.65,-472.98 178.65,-472.98 178.65,-472.98 178.65,-398.98 178.65,-314.35 240.12,-228.95 274.33,-187.98"/>
<polygon fill="#f31616" stroke="black" points="277.17,-190.05 280.98,-180.16 271.84,-185.51 277.17,-190.05"/>
</g>
<!-- flask_signals&#45;&gt;flask_templating -->
<g id="edge52" class="edge">
<title>flask_signals&#45;&gt;flask_templating</title><style>.edge>path:hover{stroke-width:8}</style>
<path fill="none" stroke="black" d="M64.65,-161C61.75,-147.15 61.49,-131.43 62.07,-118.39"/>
<polygon fill="#f31616" stroke="black" points="65.57,-118.37 62.71,-108.17 58.59,-117.94 65.57,-118.37"/>
</g>
<!-- flask_templating&#45;&gt;flask -->
<g id="edge53" class="edge">
<title>flask_templating&#45;&gt;flask</title><style>.edge>path:hover{stroke-width:8}</style>
<path fill="none" stroke="black" d="M99.84,-79.7C149.89,-66.48 241.23,-42.36 292.39,-28.84"/>
<polygon fill="blue" stroke="black" points="293.6,-32.14 302.37,-26.21 291.81,-25.38 293.6,-32.14"/>
</g>
<!-- flask_typing -->
<g id="node19" class="node">
<title>flask_typing</title><style>.edge>path:hover{stroke-width:8}</style>
<ellipse fill="#db2f2f" stroke="black" cx="832.65" cy="-831.98" rx="43.62" ry="18"/>
<text text-anchor="middle" x="832.65" y="-829.48" font-family="Helvetica,sans-Serif" font-size="10.00" fill="#ffffff">flask.typing</text>
</g>
<!-- flask_typing&#45;&gt;flask_app -->
<g id="edge56" class="edge">
<title>flask_typing&#45;&gt;flask_app</title><style>.edge>path:hover{stroke-width:8}</style>
<path fill="none" stroke="black" d="M798.93,-820.35C759.29,-807.85 693.55,-787.12 651.17,-773.76"/>
<polygon fill="#db2f2f" stroke="black" points="652.05,-770.37 641.46,-770.7 649.94,-777.04 652.05,-770.37"/>
</g>
<!-- flask_typing&#45;&gt;flask_ctx -->
<g id="edge57" class="edge">
<title>flask_typing&#45;&gt;flask_ctx</title><style>.edge>path:hover{stroke-width:8}</style>
<path fill="none" stroke="black" d="M859.18,-817.42C874.59,-808.25 893.17,-794.77 904.65,-777.98 927.78,-744.17 928.65,-729.95 928.65,-688.98 928.65,-688.98 928.65,-688.98 928.65,-542.98 928.65,-479.87 947.93,-461.08 928.65,-400.98"/>
<path fill="none" stroke="black" d="M928.65,-398.98C918.32,-370.85 888.98,-352.66 864.25,-341.9"/>
<polygon fill="#db2f2f" stroke="black" points="865.28,-338.54 854.7,-338 862.63,-345.02 865.28,-338.54"/>
</g>
<!-- flask_typing&#45;&gt;flask_views -->
<g id="edge58" class="edge">
<title>flask_typing&#45;&gt;flask_views</title><style>.edge>path:hover{stroke-width:8}</style>
<path fill="none" stroke="black" d="M928.65,-398.98C901.24,-324.35 875.72,-233.88 863.77,-189.78"/>
<polygon fill="#db2f2f" stroke="black" points="867.14,-188.84 861.16,-180.1 860.38,-190.66 867.14,-188.84"/>
</g>
<!-- flask_wrappers&#45;&gt;flask -->
<g id="edge59" class="edge">
<title>flask_wrappers&#45;&gt;flask</title><style>.edge>path:hover{stroke-width:8}</style>
<path fill="none" stroke="black" d="M472.56,-453.68C445.52,-394.66 362.46,-202.68 406.65,-163"/>
</g>
<!-- flask_wrappers&#45;&gt;flask_app -->
<g id="edge60" class="edge">
<title>flask_wrappers&#45;&gt;flask_app</title><style>.edge>path:hover{stroke-width:8}</style>
<path fill="none" stroke="black" d="M492.04,-490.17C513.91,-523.99 561.95,-602.45 588.38,-677.39"/>
<polygon fill="blue" stroke="black" points="585.11,-678.65 591.65,-686.98 591.74,-676.39 585.11,-678.65"/>
</g>
<!-- flask_wrappers&#45;&gt;flask_blueprints -->
<g id="edge61" class="edge">
<title>flask_wrappers&#45;&gt;flask_blueprints</title><style>.edge>path:hover{stroke-width:8}</style>
<path fill="none" stroke="black" d="M480.71,-490.08C479.85,-509.94 475.39,-542.48 456.65,-561.98 419.54,-600.6 392.4,-580.87 341.65,-597.98 340.04,-598.53 338.4,-599.09 336.74,-599.66"/>
<polygon fill="blue" stroke="black" points="335.48,-596.39 327.2,-603 337.8,-603 335.48,-596.39"/>
</g>
<!-- flask_wrappers&#45;&gt;flask_ctx -->
<g id="edge62" class="edge">
<title>flask_wrappers&#45;&gt;flask_ctx</title><style>.edge>path:hover{stroke-width:8}</style>
<path fill="none" stroke="black" d="M524.69,-466.42C592.66,-458.73 719.28,-441.7 757.65,-417.98 782.18,-402.82 801.11,-375.36 812.69,-354.94"/>
<polygon fill="blue" stroke="black" points="815.79,-356.58 817.49,-346.12 809.64,-353.23 815.79,-356.58"/>
</g>
<!-- flask_wrappers&#45;&gt;flask_globals -->
<g id="edge64" class="edge">
<title>flask_wrappers&#45;&gt;flask_globals</title><style>.edge>path:hover{stroke-width:8}</style>
<path fill="none" stroke="black" d="M484.73,-443.58C489.59,-411.5 498.12,-356.78 506.65,-309.98 508.88,-297.77 511.58,-284.3 513.94,-272.88"/>
<polygon fill="blue" stroke="black" points="481.26,-443.14 483.23,-453.55 488.18,-444.18 481.26,-443.14"/>
<polygon fill="blue" stroke="black" points="517.37,-273.57 515.99,-263.07 510.52,-272.14 517.37,-273.57"/>
</g>
<!-- flask_wrappers&#45;&gt;flask_helpers -->
<g id="edge65" class="edge">
<title>flask_wrappers&#45;&gt;flask_helpers</title><style>.edge>path:hover{stroke-width:8}</style>
<path fill="none" stroke="black" d="M455.12,-446.71C446.78,-438.08 437.82,-428.01 430.65,-417.98 375.24,-340.52 328.11,-237.19 307.61,-189.35"/>
<polygon fill="blue" stroke="black" points="452.71,-449.25 462.24,-453.89 457.68,-444.32 452.71,-449.25"/>
<polygon fill="blue" stroke="black" points="310.77,-187.85 303.64,-180.02 304.33,-190.59 310.77,-187.85"/>
</g>
<!-- flask_wrappers&#45;&gt;flask_json -->
<g id="edge66" class="edge">
<title>flask_wrappers&#45;&gt;flask_json</title><style>.edge>path:hover{stroke-width:8}</style>
<path fill="none" stroke="black" d="M493.32,-444.61C523.67,-381.53 598.55,-226.35 605.65,-216 612.56,-205.93 621.3,-195.84 629.49,-187.22"/>
<polygon fill="blue" stroke="black" points="490.03,-443.38 488.85,-453.91 496.34,-446.42 490.03,-443.38"/>
<polygon fill="blue" stroke="black" points="632.01,-189.65 636.48,-180.05 627,-184.76 632.01,-189.65"/>
</g>
<!-- flask_wrappers&#45;&gt;flask_sessions -->
<g id="edge67" class="edge">
<title>flask_wrappers&#45;&gt;flask_sessions</title><style>.edge>path:hover{stroke-width:8}</style>
<path fill="none" stroke="black" d="M524.83,-457.24C561.76,-445.75 614.5,-429.34 653.49,-417.21"/>
<polygon fill="blue" stroke="black" points="654.58,-420.54 663.09,-414.22 652.5,-413.85 654.58,-420.54"/>
</g>
</g>
</svg>
